<svg width="512.001" height="512.001" viewBox="0 0 512.001 512.001">
  <g>
  	<g>
  		<path d="M166.393,65.905h-0.022H69.519c-1.113,27.752,21.072,50.462,48.437,50.462C145.32,116.367,167.506,93.655,166.393,65.905z
  			"/>
  	</g>
  </g>
  <g>
  	<g>
  		<path d="M211.727,176.884c-0.121-24.113-19.87-43.789-44.009-43.789H67.883c-24.144,0-43.888,19.643-44.009,43.788
  			c-0.026,5.065-0.66,131.377-0.687,136.622c-0.052,10.27,8.232,18.638,18.503,18.689c0.032,0,0.064,0,0.096,0
  			c10.226,0,18.542-8.265,18.594-18.503c0.028-5.451,0.662-131.824,0.687-136.622c0-0.013,0-0.028,0-0.041
  			c0.022-1.975,1.636-3.562,3.611-3.551c1.975,0.011,3.57,1.616,3.57,3.591c0.001,46.478,0.009,312.615,0.009,312.615
  			c0,12.324,9.992,22.316,22.316,22.316c12.324,0,22.316-9.992,22.316-22.316V311.311h9.635v178.373
  			c0,12.324,9.992,22.316,22.316,22.316s22.316-9.992,22.316-22.316c0-306.176-0.405-115.615-0.405-312.756
  			c0-2.149,1.742-3.892,3.892-3.892c2.149,0,3.892,1.742,3.893,3.891c0,0.048,0,0.095-0.001,0.144c0,0,0.613,121.932,0.687,136.622
  			c0.051,10.239,8.367,18.503,18.594,18.503c0.031,0,0.065,0,0.096,0c10.27-0.051,18.555-8.419,18.503-18.689
  			C212.387,308.26,211.752,181.946,211.727,176.884z"/>
  	</g>
  </g>
  <g>
  	<g>
  		<path d="M194.35,36.855c-6.049,0-24.572,0-31.259,0c-6.128-15.801-20.28-27.593-37.463-30.368C125.226,2.839,122.136,0,118.38,0
  			c-3.698,0-6.746,2.755-7.223,6.323c-23.647,3.254-41.864,23.53-41.864,48.07c0,0,110.688-0.308,125.057-0.308
  			c4.758,0,8.615-3.856,8.615-8.615C202.966,40.712,199.109,36.855,194.35,36.855z"/>
  	</g>
  </g>
  <g>
  	<g>
  		<path d="M487.666,291.373c-8.02-21.948-30.132-85.363-45.465-129.371c-6.861-19.694-25.444-32.917-46.299-32.925
  			c-19.028-0.007-37.952-0.012-56.732-0.012c-20.767,0-39.27,13.076-46.221,32.644c-19.033,53.578-39.727,111.405-46.401,129.665
  			c-3.565,9.751,1.449,20.547,11.201,24.113c9.742,3.563,20.544-1.444,24.112-11.201c8.944-24.458,28.874-79.962,37.361-103.648
  			c-5.962,33.322-19.283,101.691-26.702,139.995c-1.253,6.466,3.733,12.441,10.252,12.441c4.045,0,8.915,0,14.346,0v136.367
  			c0,12.459,10.1,22.56,22.559,22.56c12.459,0,22.559-10.1,22.559-22.56V353.073c3.243,0,6.498,0,9.741,0v136.368
  			c0,12.459,10.1,22.56,22.559,22.56c12.459,0,22.559-10.1,22.559-22.56V353.073c5.431,0,10.303,0,14.346,0
  			c6.555,0,11.504-5.983,10.253-12.441c-22.159-114.305-25.714-131.918-26.702-139.995c15.056,42.624,37.099,102.931,37.361,103.648
  			c3.564,9.749,14.356,14.766,24.112,11.201C486.216,311.92,491.232,301.125,487.666,291.373z"/>
  	</g>
  </g>
  <g>
  	<g>
  		<path d="M472.369,113.917c-10.683-21.963-23.203-29.881-30.799-33.675c-5.761-2.878-11.906-3.293-17.358,0.294l0.765-1.795
  			c1.246-2.924-0.116-6.305-3.04-7.551c-2.504-1.067-5.335-0.21-6.881,1.892c3.248-29.021-19.466-53.937-48.174-53.937
  			c-28.76,0-51.416,24.969-48.175,53.936c-1.546-2.102-4.374-2.957-6.88-1.891c-2.924,1.246-4.285,4.626-3.04,7.551l0.765,1.795
  			c-5.45-3.588-11.595-3.173-17.357-0.295c-7.595,3.795-20.117,11.712-30.799,33.675c-1.17,2.41,1.135,5.047,3.675,4.213
  			c18.894-6.198,38.022-0.707,45.476-4.43c4.121-2.059,7.31-5.716,8.674-10.46c0.712,1.672,1.819,5.471,6.137,5.471
  			c4.105,0,6.912-4.21,5.293-8.012l-0.717-1.683c8.894,10.462,22.142,17.107,36.95,17.107s28.056-6.646,36.95-17.108l-0.717,1.683
  			c-1.619,3.802,1.185,8.012,5.293,8.012c4.31,0,5.429-3.809,6.137-5.47c1.361,4.727,4.539,8.393,8.674,10.459
  			c7.454,3.724,26.581-1.768,45.476,4.43C471.235,118.962,473.54,116.325,472.369,113.917z"/>
  	</g>
  </g>
</svg>
