<svg width="31.499" height="31.499" viewBox="0 0 31.499 31.499">
  <g>
    <path d="M22.089,5.324c1.459,0,2.643-1.184,2.643-2.645c0-1.46-1.184-2.643-2.643-2.643c-1.461,0-2.645,1.183-2.645,2.643
     C19.444,4.14,20.628,5.324,22.089,5.324z"/>
    <path d="M27.786,8.827c0,0,0.149-2.953-2.967-2.953h-5.402c-3.005,0-2.983,2.727-2.985,2.953l0.001,8.38
       c0.049,0.451,0.494,0.967,1.049,0.967c0.551,0,0.956-0.499,1.005-0.951l0.938,13.344c0.07,0.68,0.549,0.933,1.14,0.933
       c0.589,0,1.067-0.253,1.138-0.933h0.832c0.072,0.68,0.551,0.933,1.137,0.933c0.592,0,1.07-0.253,1.142-0.933l0.966-13.354
       c0,0.453,0.439,0.963,0.992,0.963c0.552,0,0.993-0.518,1.042-0.969L27.786,8.827z"/>
    <ellipse cx="9.778" cy="2.635" rx="2.587" ry="2.635"/>
    <path d="M15.471,12.522c0.231-0.981-1.104-5.02-1.104-5.02c-0.149-0.381-0.858-1.548-2.852-1.56L7.617,5.954
       C5.686,5.846,4.969,6.953,4.792,7.538c0,0-1.295,4.068-1.081,4.984c0.142,0.602,1.218,1.341,2.35,1.88l-2.375,7.245l3.475-0.011
       l0.01,8.789c0.067,0.677,0.538,0.925,1.116,0.925c0.575,0,1.048-0.228,1.113-0.904h0.358c0.066,0.678,0.536,0.916,1.112,0.916
       c0.579,0,1.048-0.254,1.116-0.93l0.009-8.796l3.707,0.005l-2.262-7.396C14.447,13.725,15.341,13.066,15.471,12.522z"/>
  </g>
</svg>
