<svg width="301.417" height="301.417" viewBox="0 0 301.417 301.417">
  <g>
  	<circle cx="70.661" cy="43.994" r="27.179"/>
  </g>
  <g>
  	<circle cx="201.056" cy="47.125" r="27.179"/>
  </g>
  <g>
  	<path d="M17.621,187.584C17.332,187.584,17.914,187.604,17.621,187.584L17.621,187.584z"/>
  	<path d="M272.85,154.515c-0.534,0-1.062,0.025-1.587,0.061l-19.391-77.987c-1.677-6.697-7.456-9.457-15.447-9.457
  		c-0.282,0-1.735,0.051-4.122,0.101c-6.625,10.26-18.152,17.072-31.248,17.072c-13.07,0-24.577-6.785-31.209-17.011
  		c-6.404-0.077-10.785-0.044-11.442-0.044c-7.696,0-13.408,3.494-14.883,10.238l-7.814,34.761l-7.66-40.897
  		c-1.152-6.154-6.631-10.389-12.704-10.178h-12.851c-6.126,11.305-18.097,19-31.833,19c-13.675,0-25.599-7.627-31.749-18.85
  		c-6.601-0.01-11.671-0.049-13.007-0.142c-6.894-0.457-12.855,4.723-13.331,11.61l-7,101.446
  		c-0.475,6.887,5.147,13.108,12.047,13.346c6.508,0.224,12.439-5.031,12.894-11.626l4.747-68.8l0.25,176.85
  		c0,8.077,6.207,15.027,14.275,15.407c8.614,0.406,15.725-6.458,15.725-14.983v-94.5c0-2.761,2.239-5,5-5l0,0c2.761,0,5,2.239,5,5
  		v94.076c0,8.077,6.207,15.027,14.275,15.407c8.614,0.406,15.725-6.458,15.725-14.983l0.25-187.308h1.679l14.473,69.871
  		c3.057,14.76,24.094,14.884,27.325,0.161l14.054-64.028v29.788l-8.6,64.214c-0.353,2.593,0.432,5.212,2.154,7.183
  		c1.692,1.938,4.128,3.058,6.697,3.095v78.583c0,8.077,6.207,15.027,14.275,15.407c8.614,0.406,15.725-6.458,15.725-14.983v-74
  		c0-2.761,2.239-5,5-5l0,0c2.761,0,5,2.239,5,5v73.576c0,8.077,6.207,15.027,14.275,15.407c8.614,0.406,15.725-6.458,15.725-14.983
  		V207.41c2.569-0.037,5.004-1.157,6.697-3.095c1.721-1.971,2.507-4.59,2.154-7.183l-8.601-64.214v-25.052l14.29,57.065
  		c0.523,2.089,1.547,3.92,2.907,5.403c-0.749,2.267-1.16,4.687-1.16,7.202v116.073c0,4.04,3.113,7.564,7.152,7.685
  		c4.179,0.126,7.606-3.225,7.606-7.375V177.534c0-1.683,0.508-3.249,1.376-4.556c1.512-0.784,2.816-1.854,3.867-3.127
  		c1.435-0.566,3.057-0.757,4.758-0.393c3.859,0.826,6.523,4.39,6.523,8.337v9.312c0,4.04,3.113,7.564,7.152,7.685
  		c4.179,0.126,7.606-3.225,7.606-7.375v-9.883C295.871,164.841,285.544,154.515,272.85,154.515z"/>
  </g>
  <g>
  	<ellipse cx="201.056" cy="13.635" rx="14.975" ry="13.635"/>
  </g>
</svg>
