<svg width="290.507" height="290.507" viewBox="0 0 290.507 290.507">
  <g>
    <path d="M249.555,104.303C249.555,46.79,202.765,0,145.253,0S40.952,46.79,40.952,104.303
    	c0,52.419,38.872,95.923,89.301,103.219l0.001,19.497h-18.487c-8.284,0-15,6.716-15,15c0,8.284,6.716,15,15,15h18.487l0.001,18.489
    	c0,8.284,6.716,15,15,15c8.284,0,15-6.716,15-15.001l-0.001-18.488h18.487c8.284,0,15-6.716,15-15c0-8.284-6.716-15-15-15h-18.487
    	l-0.001-19.497C210.683,200.227,249.555,156.722,249.555,104.303z M70.952,104.303C70.952,63.332,104.284,30,145.253,30
    	s74.302,33.332,74.302,74.303c0,40.97-33.332,74.302-74.302,74.302S70.952,145.273,70.952,104.303z"/>
  </g>
</svg>
