<svg width="240.699" height="240.699" viewBox="0 0 240.699 240.699">
  <g>
    <path d="M240.625,13.726c-0.021-0.217-0.063-0.428-0.094-0.642c-0.038-0.27-0.069-0.541-0.123-0.809
    	c-0.049-0.25-0.118-0.493-0.18-0.738c-0.058-0.228-0.107-0.458-0.176-0.684c-0.074-0.244-0.166-0.478-0.251-0.716
    	c-0.08-0.223-0.153-0.448-0.245-0.668c-0.093-0.225-0.202-0.441-0.306-0.66c-0.107-0.224-0.205-0.45-0.322-0.669
    	c-0.114-0.214-0.245-0.417-0.37-0.625c-0.127-0.212-0.246-0.426-0.384-0.633c-0.158-0.236-0.333-0.459-0.504-0.686
    	c-0.124-0.164-0.237-0.333-0.368-0.493c-0.63-0.768-1.334-1.471-2.102-2.101c-0.151-0.125-0.313-0.232-0.468-0.35
    	c-0.234-0.178-0.466-0.359-0.712-0.523c-0.196-0.131-0.4-0.245-0.602-0.366c-0.219-0.131-0.433-0.268-0.658-0.389
    	c-0.206-0.11-0.418-0.203-0.628-0.303c-0.233-0.111-0.464-0.227-0.703-0.326c-0.202-0.083-0.409-0.15-0.614-0.225
    	c-0.256-0.093-0.51-0.191-0.771-0.27c-0.201-0.061-0.405-0.104-0.607-0.157c-0.271-0.069-0.54-0.144-0.816-0.199
    	c-0.226-0.044-0.453-0.069-0.68-0.104c-0.256-0.039-0.51-0.086-0.771-0.111c-0.386-0.038-0.772-0.051-1.16-0.059
    	c-0.104-0.002-0.205-0.016-0.311-0.016H178.34c-8.284,0-15,6.716-15,15s6.716,15,15,15h11.148L166.89,52.806
    	c-17.445-13.127-39.123-20.918-62.587-20.918C46.79,31.888,0,78.678,0,136.19c0,57.512,46.79,104.302,104.303,104.302
    	c57.512,0,104.301-46.79,104.301-104.302c0-23.251-7.65-44.748-20.561-62.111l22.657-22.658v11.146c0,8.284,6.716,15,15,15
    	c8.284,0,15-6.716,15-15V15.213C240.699,14.716,240.674,14.22,240.625,13.726z M104.303,210.492
    	C63.332,210.492,30,177.161,30,136.19c0-40.971,33.332-74.303,74.303-74.303c40.97,0,74.301,33.332,74.301,74.303
    	C178.604,177.161,145.273,210.492,104.303,210.492z"/>
  </g>
</svg>
