<svg width="322.187" height="322.187" viewBox="0 0 322.187 322.187">
  <g>
		<path d="M281.439,14.934c-0.002-0.471-0.025-0.941-0.071-1.411c-0.023-0.236-0.067-0.466-0.101-0.699
			c-0.037-0.25-0.065-0.502-0.115-0.75c-0.052-0.264-0.124-0.52-0.19-0.778c-0.055-0.215-0.102-0.431-0.165-0.644
			c-0.077-0.254-0.172-0.5-0.262-0.748c-0.077-0.212-0.146-0.426-0.232-0.636c-0.098-0.235-0.212-0.462-0.321-0.691
			c-0.101-0.213-0.195-0.429-0.307-0.638c-0.121-0.226-0.258-0.44-0.39-0.659c-0.121-0.2-0.233-0.403-0.364-0.599
			c-0.167-0.25-0.353-0.487-0.534-0.727c-0.114-0.15-0.218-0.305-0.338-0.452c-0.631-0.77-1.336-1.476-2.106-2.106
			c-0.138-0.113-0.285-0.211-0.426-0.318c-0.248-0.189-0.494-0.381-0.754-0.554c-0.186-0.124-0.379-0.231-0.569-0.346
			c-0.229-0.139-0.455-0.282-0.691-0.409c-0.196-0.104-0.397-0.192-0.596-0.287c-0.244-0.117-0.485-0.237-0.736-0.341
			c-0.191-0.079-0.386-0.141-0.579-0.212c-0.268-0.098-0.533-0.2-0.807-0.282c-0.187-0.056-0.377-0.097-0.565-0.145
			c-0.285-0.074-0.568-0.152-0.859-0.21c-0.204-0.04-0.41-0.063-0.615-0.094c-0.278-0.043-0.553-0.093-0.836-0.121
			c-0.325-0.031-0.65-0.039-0.977-0.049C266.768,0.019,266.607,0,266.442,0h-47.359c-8.284,0-15,6.716-15,15c0,8.284,6.716,15,15,15
			h11.148l-22.598,22.598C190.188,39.471,168.51,31.68,145.046,31.68c-57.512,0-104.302,46.79-104.302,104.303
			c0,52.419,38.871,95.923,89.301,103.219l0.001,19.497h-18.487c-8.284,0-15,6.716-15,15c0,8.284,6.716,15,15,15h18.488l0.001,18.488
			c0,8.284,6.716,15,15,15c8.284,0,15-6.716,15-15.001l-0.001-18.487h18.487c8.284,0,15-6.716,15-15c0-8.284-6.716-15-15-15h-18.487
			l-0.001-19.497c50.43-7.295,89.302-50.8,89.302-103.219c0-23.251-7.65-44.748-20.562-62.111l22.656-22.657V62.36
			c0,8.284,6.716,15,15,15c8.284,0,15-6.716,15-15V15C281.442,14.978,281.439,14.957,281.439,14.934z M145.046,210.285
			c-40.97,0-74.302-33.332-74.302-74.302c0-40.971,33.331-74.303,74.302-74.303c40.97,0,74.302,33.332,74.302,74.303
			C219.348,176.953,186.016,210.285,145.046,210.285z"/>
  </g>
</svg>
